<?xml version="1.0" standalone="no"?><!DOCTYPE svg PUBLIC "-//W3C//DTD SVG 1.1//EN" "http://www.w3.org/Graphics/SVG/1.1/DTD/svg11.dtd"><svg t="1686289081217" class="icon" viewBox="0 0 1024 1024" version="1.1" xmlns="http://www.w3.org/2000/svg" p-id="24109" xmlns:xlink="http://www.w3.org/1999/xlink" width="128" height="128"><path d="M324.266667 401.066667c22.755556 0 45.511111 5.688889 68.266666 11.377777 22.755556-42.666667 56.888889-79.644444 99.555556-105.244444-25.6-76.8-96.711111-133.688889-182.044445-133.688889C199.111111 173.511111 113.777778 258.844444 113.777778 366.933333c0 48.355556 17.066667 91.022222 45.511111 125.155556 36.977778-54.044444 96.711111-91.022222 164.977778-91.022222z" fill="#FAD105" p-id="24110"></path><path d="M910.222222 591.644444c0-142.222222-116.622222-258.844444-258.844444-258.844444-102.4 0-187.733333 56.888889-230.4 142.222222-19.911111-8.533333-42.666667-11.377778-68.266667-11.377778-108.088889 0-193.422222 88.177778-193.422222 193.422223 0 102.4 79.644444 187.733333 182.044444 193.422222h338.488889c128-14.222222 230.4-125.155556 230.4-258.844445z" fill="#D5E0F7" p-id="24111"></path></svg>